<svg width="14" height="14" viewBox="0 0 14 14" fill="none" xmlns="http://www.w3.org/2000/svg">
<path d="M6.33301 0.333252C9.64501 0.333252 12.333 3.02125 12.333 6.33325C12.333 9.64525 9.64501 12.3333 6.33301 12.3333C3.02101 12.3333 0.333008 9.64525 0.333008 6.33325C0.333008 3.02125 3.02101 0.333252 6.33301 0.333252ZM6.33301 10.9999C8.91101 10.9999 10.9997 8.91125 10.9997 6.33325C10.9997 3.75459 8.91101 1.66659 6.33301 1.66659C3.75434 1.66659 1.66634 3.75459 1.66634 6.33325C1.66634 8.91125 3.75434 10.9999 6.33301 10.9999ZM11.9897 11.0473L13.8757 12.9326L12.9323 13.8759L11.047 11.9899L11.9897 11.0473Z" fill="#909090"/>
</svg>
